# xmcd
#
# Track frame offsets:
#	150
#	17618
#	41566
#
# Disc length: 786 seconds
#
# Revision: 0
# Processed by: cddbd v1.5.2PL0 Copyright (c) Steve Scherf et al.
# Submitted via: audiograbber 1.83.01
#
DISCID=19031003
DTITLE=Schnitte - Wie die Nase eines Mannes...(Maxi)
DYEAR=2003
DGENRE=Schlager
TTITLE0=Wie die Nase eines Mannes... (Single version)
TTITLE1=Wie die Nase eines Mannes... (Extended Mix)
TTITLE2=Wie die Nase eines Mannes... (Karaoke version)
EXTD=
EXTT0=
EXTT1=
EXTT2=
PLAYORDER=
